<svg width="65" height="65" viewBox="0 0 65 65" fill="none" xmlns="http://www.w3.org/2000/svg">
<path d="M59.8 2.6001H20.8C19.37 2.6001 18.2 3.7701 18.2 5.2001V7.8001H15.6C14.17 7.8001 13 8.9701 13 10.4001V13.0001H10.4C8.96998 13.0001 7.79998 14.1701 7.79998 15.6001V18.2001H5.19998C3.76998 18.2001 2.59998 19.3701 2.59998 20.8001V59.8001C2.59998 61.2301 3.76998 62.4001 5.19998 62.4001H44.2C45.63 62.4001 46.8 61.2301 46.8 59.8001V57.2001H49.4C50.83 57.2001 52 56.0301 52 54.6001V52.0001H54.6C56.03 52.0001 57.2 50.8301 57.2 49.4001V46.8001H59.8C61.23 46.8001 62.4 45.6301 62.4 44.2001V5.2001C62.4 3.7701 61.23 2.6001 59.8 2.6001ZM19.5 5.2001C19.5 4.4851 20.085 3.9001 20.8 3.9001H59.8C60.515 3.9001 61.1 4.4851 61.1 5.2001V9.1001H56.81C56.355 8.3201 55.51 7.8001 54.6 7.8001H53.95H50.05H19.5V5.2001ZM14.3 10.4001C14.3 9.6851 14.885 9.1001 15.6 9.1001H54.6C55.315 9.1001 55.9 9.6851 55.9 10.4001V14.3001H51.61C51.155 13.5201 50.31 13.0001 49.4 13.0001H48.75H44.85H14.3V10.4001ZM9.09998 15.6001C9.09998 14.8851 9.68498 14.3001 10.4 14.3001H49.4C50.115 14.3001 50.7 14.8851 50.7 15.6001V19.5001H46.41C45.955 18.7201 45.11 18.2001 44.2 18.2001H43.55H39.65H9.09998V15.6001ZM5.19998 19.5001H44.2C44.915 19.5001 45.5 20.0851 45.5 20.8001V24.7001H3.89998V20.8001C3.89998 20.0851 4.48498 19.5001 5.19998 19.5001ZM45.5 59.8001C45.5 60.5151 44.915 61.1001 44.2 61.1001H5.19998C4.48498 61.1001 3.89998 60.5151 3.89998 59.8001V26.0001H45.5V59.8001ZM50.7 54.6001C50.7 55.3151 50.115 55.9001 49.4 55.9001H46.8V20.8001H50.7V54.6001ZM55.9 49.4001C55.9 50.1151 55.315 50.7001 54.6 50.7001H52V15.6001H55.9V49.4001ZM59.8 45.5001H57.2V10.4001H61.1V44.2001C61.1 44.9151 60.515 45.5001 59.8 45.5001Z" fill="#4A55A2"/>
<path d="M45.5 59.8001C45.5 60.5151 44.915 61.1001 44.2 61.1001H5.19998C4.48498 61.1001 3.89998 60.5151 3.89998 59.8001V26.0001H45.5V59.8001Z" fill="#C5DFF8"/>
<path d="M50.7 54.6001C50.7 55.3151 50.115 55.9001 49.4 55.9001H46.8V20.8001H50.7V54.6001Z" fill="#A0BFE0"/>
<path d="M55.9 49.4001C55.9 50.1151 55.315 50.7001 54.6 50.7001H52V15.6001H55.9V49.4001Z" fill="#7895CB"/>
<path d="M59.8 45.5001H57.2V10.4001H61.1V44.2001C61.1 44.9151 60.515 45.5001 59.8 45.5001Z" fill="#4A55A2"/>
<path d="M5.19998 19.5001H44.2C44.915 19.5001 45.5 20.0851 45.5 20.8001V24.7001H3.89998V20.8001C3.89998 20.0851 4.48498 19.5001 5.19998 19.5001Z" fill="white"/>
<path d="M9.09998 15.6001C9.09998 14.8851 9.68498 14.3001 10.4 14.3001H49.4C50.115 14.3001 50.7 14.8851 50.7 15.6001V19.5001H46.41C45.955 18.7201 45.11 18.2001 44.2 18.2001H43.55H39.65H9.09998V15.6001Z" fill="white"/>
<path d="M14.3 10.4001C14.3 9.6851 14.885 9.1001 15.6 9.1001H54.6C55.315 9.1001 55.9 9.6851 55.9 10.4001V14.3001H51.61C51.155 13.5201 50.31 13.0001 49.4 13.0001H48.75H44.85H14.3V10.4001Z" fill="white"/>
<path d="M19.5 5.2001C19.5 4.4851 20.085 3.9001 20.8 3.9001H59.8C60.515 3.9001 61.1 4.4851 61.1 5.2001V9.1001H56.81C56.355 8.3201 55.51 7.8001 54.6 7.8001H53.95H50.05H19.5V5.2001Z" fill="white"/>
<path d="M34.45 23.4C35.168 23.4 35.75 22.818 35.75 22.1C35.75 21.3821 35.168 20.8 34.45 20.8C33.7321 20.8 33.15 21.3821 33.15 22.1C33.15 22.818 33.7321 23.4 34.45 23.4Z" fill="#4A55A2"/>
<path d="M38.3499 23.4C39.0679 23.4 39.6499 22.818 39.6499 22.1C39.6499 21.3821 39.0679 20.8 38.3499 20.8C37.632 20.8 37.0499 21.3821 37.0499 22.1C37.0499 22.818 37.632 23.4 38.3499 23.4Z" fill="#4A55A2"/>
<path d="M42.25 23.4C42.9679 23.4 43.55 22.818 43.55 22.1C43.55 21.3821 42.9679 20.8 42.25 20.8C41.532 20.8 40.95 21.3821 40.95 22.1C40.95 22.818 41.532 23.4 42.25 23.4Z" fill="#4A55A2"/>
<path d="M39.65 18.2001C40.3679 18.2001 40.95 17.6181 40.95 16.9001C40.95 16.1821 40.3679 15.6001 39.65 15.6001C38.932 15.6001 38.35 16.1821 38.35 16.9001C38.35 17.6181 38.932 18.2001 39.65 18.2001Z" fill="#4A55A2"/>
<path d="M43.55 18.2001C44.268 18.2001 44.85 17.6181 44.85 16.9001C44.85 16.1821 44.268 15.6001 43.55 15.6001C42.832 15.6001 42.25 16.1821 42.25 16.9001C42.25 17.6181 42.832 18.2001 43.55 18.2001Z" fill="#4A55A2"/>
<path d="M47.45 18.2001C48.168 18.2001 48.75 17.6181 48.75 16.9001C48.75 16.1821 48.168 15.6001 47.45 15.6001C46.7321 15.6001 46.15 16.1821 46.15 16.9001C46.15 17.6181 46.7321 18.2001 47.45 18.2001Z" fill="#4A55A2"/>
<path d="M44.8499 13.0001C45.5679 13.0001 46.1499 12.4181 46.1499 11.7001C46.1499 10.9822 45.5679 10.4001 44.8499 10.4001C44.132 10.4001 43.5499 10.9822 43.5499 11.7001C43.5499 12.4181 44.132 13.0001 44.8499 13.0001Z" fill="#4A55A2"/>
<path d="M48.75 13.0001C49.4679 13.0001 50.05 12.4181 50.05 11.7001C50.05 10.9822 49.4679 10.4001 48.75 10.4001C48.032 10.4001 47.45 10.9822 47.45 11.7001C47.45 12.4181 48.032 13.0001 48.75 13.0001Z" fill="#4A55A2"/>
<path d="M52.65 13.0001C53.3679 13.0001 53.95 12.4181 53.95 11.7001C53.95 10.9822 53.3679 10.4001 52.65 10.4001C51.932 10.4001 51.35 10.9822 51.35 11.7001C51.35 12.4181 51.932 13.0001 52.65 13.0001Z" fill="#4A55A2"/>
<path d="M50.05 7.8002C50.768 7.8002 51.35 7.21817 51.35 6.5002C51.35 5.78223 50.768 5.2002 50.05 5.2002C49.332 5.2002 48.75 5.78223 48.75 6.5002C48.75 7.21817 49.332 7.8002 50.05 7.8002Z" fill="#4A55A2"/>
<path d="M53.95 7.8002C54.668 7.8002 55.25 7.21817 55.25 6.5002C55.25 5.78223 54.668 5.2002 53.95 5.2002C53.2321 5.2002 52.65 5.78223 52.65 6.5002C52.65 7.21817 53.2321 7.8002 53.95 7.8002Z" fill="#4A55A2"/>
<path d="M57.8499 7.8002C58.5679 7.8002 59.1499 7.21817 59.1499 6.5002C59.1499 5.78223 58.5679 5.2002 57.8499 5.2002C57.132 5.2002 56.5499 5.78223 56.5499 6.5002C56.5499 7.21817 57.132 7.8002 57.8499 7.8002Z" fill="#4A55A2"/>
<path d="M7.79998 35.7502H41.6C42.705 35.7502 43.55 34.9052 43.55 33.8002V29.9002C43.55 28.7952 42.705 27.9502 41.6 27.9502H7.79998C6.69498 27.9502 5.84998 28.7952 5.84998 29.9002V33.8002C5.84998 34.9052 6.69498 35.7502 7.79998 35.7502ZM7.14998 29.9002C7.14998 29.5102 7.40998 29.2502 7.79998 29.2502H41.6C41.99 29.2502 42.25 29.5102 42.25 29.9002V33.8002C42.25 34.1902 41.99 34.4502 41.6 34.4502H7.79998C7.40998 34.4502 7.14998 34.1902 7.14998 33.8002V29.9002Z" fill="#4A55A2"/>
<path d="M7.14998 29.9002C7.14998 29.5102 7.40998 29.2502 7.79998 29.2502H41.6C41.99 29.2502 42.25 29.5102 42.25 29.9002V33.8002C42.25 34.1902 41.99 34.4502 41.6 34.4502H7.79998C7.40998 34.4502 7.14998 34.1902 7.14998 33.8002V29.9002Z" fill="#A0BFE0"/>
<path d="M23.4 44.8501H7.79998C6.69498 44.8501 5.84998 45.6951 5.84998 46.8001V57.2001C5.84998 58.3051 6.69498 59.1501 7.79998 59.1501H23.4C24.505 59.1501 25.35 58.3051 25.35 57.2001V46.8001C25.35 45.6951 24.505 44.8501 23.4 44.8501ZM24.05 57.2001C24.05 57.5901 23.79 57.8501 23.4 57.8501H7.79998C7.40998 57.8501 7.14998 57.5901 7.14998 57.2001V46.8001C7.14998 46.4101 7.40998 46.1501 7.79998 46.1501H23.4C23.79 46.1501 24.05 46.4101 24.05 46.8001V57.2001Z" fill="#4A55A2"/>
<path d="M24.05 57.2001C24.05 57.5901 23.79 57.8501 23.4 57.8501H7.79998C7.40998 57.8501 7.14998 57.5901 7.14998 57.2001V46.8001C7.14998 46.4101 7.40998 46.1501 7.79998 46.1501H23.4C23.79 46.1501 24.05 46.4101 24.05 46.8001V57.2001Z" fill="#7895CB"/>
<path d="M43.55 41.6001H7.15C6.76 41.6001 6.5 41.8601 6.5 42.2501C6.5 42.6401 6.76 42.9001 7.15 42.9001H43.55C43.94 42.9001 44.2 42.6401 44.2 42.2501C44.2 41.8601 43.94 41.6001 43.55 41.6001Z" fill="#4A55A2"/>
<path d="M43.55 38.3501H7.15C6.76 38.3501 6.5 38.6101 6.5 39.0001C6.5 39.3901 6.76 39.6501 7.15 39.6501H43.55C43.94 39.6501 44.2 39.3901 44.2 39.0001C44.2 38.6101 43.94 38.3501 43.55 38.3501Z" fill="#4A55A2"/>
<path d="M42.8999 44.8501H27.9499C27.5599 44.8501 27.2999 45.1101 27.2999 45.5001C27.2999 45.8901 27.5599 46.1501 27.9499 46.1501H42.8999C43.2899 46.1501 43.5499 45.8901 43.5499 45.5001C43.5499 45.1101 43.2899 44.8501 42.8999 44.8501Z" fill="#4A55A2"/>
<path d="M42.8999 48.1001H27.9499C27.5599 48.1001 27.2999 48.3601 27.2999 48.7501C27.2999 49.1401 27.5599 49.4001 27.9499 49.4001H42.8999C43.2899 49.4001 43.5499 49.1401 43.5499 48.7501C43.5499 48.3601 43.2899 48.1001 42.8999 48.1001Z" fill="#4A55A2"/>
<path d="M42.8999 51.3501H27.9499C27.5599 51.3501 27.2999 51.6101 27.2999 52.0001C27.2999 52.3901 27.5599 52.6501 27.9499 52.6501H42.8999C43.2899 52.6501 43.5499 52.3901 43.5499 52.0001C43.5499 51.6101 43.2899 51.3501 42.8999 51.3501Z" fill="#4A55A2"/>
<path d="M42.8999 54.6001H27.9499C27.5599 54.6001 27.2999 54.8601 27.2999 55.2501C27.2999 55.6401 27.5599 55.9001 27.9499 55.9001H42.8999C43.2899 55.9001 43.5499 55.6401 43.5499 55.2501C43.5499 54.8601 43.2899 54.6001 42.8999 54.6001Z" fill="#4A55A2"/>
<path d="M42.8999 57.8501H27.9499C27.5599 57.8501 27.2999 58.1101 27.2999 58.5001C27.2999 58.8901 27.5599 59.1501 27.9499 59.1501H42.8999C43.2899 59.1501 43.5499 58.8901 43.5499 58.5001C43.5499 58.1101 43.2899 57.8501 42.8999 57.8501Z" fill="#4A55A2"/>
</svg>
