<svg width="65" height="64" viewBox="0 0 65 64" fill="none" xmlns="http://www.w3.org/2000/svg">
<path d="M26.4777 4C25.4581 4 24.5059 4.50962 23.9426 5.36163L20.7846 10.1154H3.04688C1.36475 10.1154 0 11.485 0 13.1731V23.1623C0 24.8186 0.785523 26.2877 2.03125 27.2233V52.9231C2.03125 55.1765 3.84827 57 6.09375 57H58.9062C61.1517 57 62.9688 55.1765 62.9688 52.9231V27.2233C64.2145 26.2877 65 24.8186 65 23.1623V13.1731C65 11.485 63.6353 10.1154 61.9531 10.1154H44.2154L41.0574 5.36163C40.4941 4.50962 39.5419 4 38.5223 4H26.4777ZM26.4777 6.03846H38.5223C38.8635 6.03846 39.1769 6.20966 39.3674 6.49234L41.7715 10.1154H23.2285L25.6326 6.49234C25.8231 6.20966 26.1365 6.03846 26.4777 6.03846ZM3.04688 12.1538H61.9531C62.5125 12.1538 62.9688 12.6117 62.9688 13.1731V14.1923C62.4094 14.1923 61.9531 14.6462 61.9531 15.2115V17.25C61.9531 17.8154 62.4094 18.2692 62.9688 18.2692V23.1623C62.9688 24.6036 61.9928 25.8299 60.5923 26.1484L36.5625 31.5909V31.5192C36.5625 30.3965 35.65 29.4808 34.5312 29.4808H30.4688C29.35 29.4808 28.4375 30.3965 28.4375 31.5192V31.5909L4.40765 26.1484C3.0072 25.8299 2.03125 24.6036 2.03125 23.1623V18.2692C2.59064 18.2692 3.04688 17.8154 3.04688 17.25V15.2115C3.04688 14.6462 2.59064 14.1923 2.03125 14.1923V13.1731C2.03125 12.6117 2.48749 12.1538 3.04688 12.1538ZM7.10938 14.1923C6.54999 14.1923 6.09375 14.6462 6.09375 15.2115V17.25C6.09375 17.8154 6.54999 18.2692 7.10938 18.2692C7.66876 18.2692 8.125 17.8154 8.125 17.25V15.2115C8.125 14.6462 7.66876 14.1923 7.10938 14.1923ZM12.1875 14.1923C11.6281 14.1923 11.1719 14.6462 11.1719 15.2115V17.25C11.1719 17.8154 11.6281 18.2692 12.1875 18.2692C12.7469 18.2692 13.2031 17.8154 13.2031 17.25V15.2115C13.2031 14.6462 12.7469 14.1923 12.1875 14.1923ZM17.2656 14.1923C16.7062 14.1923 16.25 14.6462 16.25 15.2115V17.25C16.25 17.8154 16.7062 18.2692 17.2656 18.2692C17.825 18.2692 18.2812 17.8154 18.2812 17.25V15.2115C18.2812 14.6462 17.825 14.1923 17.2656 14.1923ZM22.3438 14.1923C21.7844 14.1923 21.3281 14.6462 21.3281 15.2115V17.25C21.3281 17.8154 21.7844 18.2692 22.3438 18.2692C22.9031 18.2692 23.3594 17.8154 23.3594 17.25V15.2115C23.3594 14.6462 22.9031 14.1923 22.3438 14.1923ZM27.4219 14.1923C26.8625 14.1923 26.4062 14.6462 26.4062 15.2115V17.25C26.4062 17.8154 26.8625 18.2692 27.4219 18.2692C27.9813 18.2692 28.4375 17.8154 28.4375 17.25V15.2115C28.4375 14.6462 27.9813 14.1923 27.4219 14.1923ZM32.5 14.1923C31.9406 14.1923 31.4844 14.6462 31.4844 15.2115V17.25C31.4844 17.8154 31.9406 18.2692 32.5 18.2692C33.0594 18.2692 33.5156 17.8154 33.5156 17.25V15.2115C33.5156 14.6462 33.0594 14.1923 32.5 14.1923ZM37.5781 14.1923C37.0187 14.1923 36.5625 14.6462 36.5625 15.2115V17.25C36.5625 17.8154 37.0187 18.2692 37.5781 18.2692C38.1375 18.2692 38.5938 17.8154 38.5938 17.25V15.2115C38.5938 14.6462 38.1375 14.1923 37.5781 14.1923ZM42.6562 14.1923C42.0969 14.1923 41.6406 14.6462 41.6406 15.2115V17.25C41.6406 17.8154 42.0969 18.2692 42.6562 18.2692C43.2156 18.2692 43.6719 17.8154 43.6719 17.25V15.2115C43.6719 14.6462 43.2156 14.1923 42.6562 14.1923ZM47.7344 14.1923C47.175 14.1923 46.7188 14.6462 46.7188 15.2115V17.25C46.7188 17.8154 47.175 18.2692 47.7344 18.2692C48.2938 18.2692 48.75 17.8154 48.75 17.25V15.2115C48.75 14.6462 48.2938 14.1923 47.7344 14.1923ZM52.8125 14.1923C52.2531 14.1923 51.7969 14.6462 51.7969 15.2115V17.25C51.7969 17.8154 52.2531 18.2692 52.8125 18.2692C53.3719 18.2692 53.8281 17.8154 53.8281 17.25V15.2115C53.8281 14.6462 53.3719 14.1923 52.8125 14.1923ZM57.8906 14.1923C57.3312 14.1923 56.875 14.6462 56.875 15.2115V17.25C56.875 17.8154 57.3312 18.2692 57.8906 18.2692C58.45 18.2692 58.9062 17.8154 58.9062 17.25V15.2115C58.9062 14.6462 58.45 14.1923 57.8906 14.1923ZM60.9375 28.159V52.9231C60.9375 54.0498 60.029 54.9615 58.9062 54.9615H6.09375C4.97101 54.9615 4.0625 54.0498 4.0625 52.9231V28.159L28.4375 33.6851V37.6346C28.4375 38.7613 29.346 39.6731 30.4688 39.6731H34.5312C35.654 39.6731 36.5625 38.7613 36.5625 37.6346V33.6811L60.9375 28.159ZM30.4688 31.5192H34.5312V37.6346H30.4688V31.5192ZM7.10938 48.8462C6.54999 48.8462 6.09375 49.3 6.09375 49.8654C6.09375 50.4307 6.54999 50.8846 7.10938 50.8846H57.8906C58.45 50.8846 58.8322 50.5654 58.8322 50C58.8322 49.5 58.45 48.8462 57.8906 48.8462H7.10938ZM57.8906 48.8462C57.3312 48.8462 59.34 48.5 58.8322 50C59.34 51 57.3312 50.8846 57.8906 50.8846C58.45 50.8846 58.8322 50.5654 58.8322 50C58.8322 49.5 58.45 48.8462 57.8906 48.8462Z" fill="#4A55A2"/>
<path fill-rule="evenodd" clip-rule="evenodd" d="M3.04688 12.1538H61.9531C62.5125 12.1538 62.9688 12.6117 62.9688 13.1731V14.1923C62.4094 14.1923 61.9531 14.6462 61.9531 15.2115V17.25C61.9531 17.8154 62.4094 18.2692 62.9688 18.2692V23.1623C62.9688 24.6036 61.9928 25.8299 60.5923 26.1484L36.5625 31.5909V31.5192C36.5625 30.3965 35.65 29.4808 34.5312 29.4808H30.4688C29.35 29.4808 28.4375 30.3965 28.4375 31.5192V31.5909L4.40765 26.1484C3.0072 25.8299 2.03125 24.6036 2.03125 23.1623V18.2692C2.59064 18.2692 3.04688 17.8154 3.04688 17.25V15.2115C3.04688 14.6462 2.59064 14.1923 2.03125 14.1923V13.1731C2.03125 12.6117 2.48749 12.1538 3.04688 12.1538ZM6.09375 15.2115C6.09375 14.6462 6.54999 14.1923 7.10938 14.1923C7.66876 14.1923 8.125 14.6462 8.125 15.2115V17.25C8.125 17.8154 7.66876 18.2692 7.10938 18.2692C6.54999 18.2692 6.09375 17.8154 6.09375 17.25V15.2115ZM11.1719 15.2115C11.1719 14.6462 11.6281 14.1923 12.1875 14.1923C12.7469 14.1923 13.2031 14.6462 13.2031 15.2115V17.25C13.2031 17.8154 12.7469 18.2692 12.1875 18.2692C11.6281 18.2692 11.1719 17.8154 11.1719 17.25V15.2115ZM16.25 15.2115C16.25 14.6462 16.7062 14.1923 17.2656 14.1923C17.825 14.1923 18.2812 14.6462 18.2812 15.2115V17.25C18.2812 17.8154 17.825 18.2692 17.2656 18.2692C16.7062 18.2692 16.25 17.8154 16.25 17.25V15.2115ZM21.3281 15.2115C21.3281 14.6462 21.7844 14.1923 22.3438 14.1923C22.9031 14.1923 23.3594 14.6462 23.3594 15.2115V17.25C23.3594 17.8154 22.9031 18.2692 22.3438 18.2692C21.7844 18.2692 21.3281 17.8154 21.3281 17.25V15.2115ZM26.4062 15.2115C26.4062 14.6462 26.8625 14.1923 27.4219 14.1923C27.9813 14.1923 28.4375 14.6462 28.4375 15.2115V17.25C28.4375 17.8154 27.9813 18.2692 27.4219 18.2692C26.8625 18.2692 26.4062 17.8154 26.4062 17.25V15.2115ZM31.4844 15.2115C31.4844 14.6462 31.9406 14.1923 32.5 14.1923C33.0594 14.1923 33.5156 14.6462 33.5156 15.2115V17.25C33.5156 17.8154 33.0594 18.2692 32.5 18.2692C31.9406 18.2692 31.4844 17.8154 31.4844 17.25V15.2115ZM36.5625 15.2115C36.5625 14.6462 37.0187 14.1923 37.5781 14.1923C38.1375 14.1923 38.5938 14.6462 38.5938 15.2115V17.25C38.5938 17.8154 38.1375 18.2692 37.5781 18.2692C37.0187 18.2692 36.5625 17.8154 36.5625 17.25V15.2115ZM41.6406 15.2115C41.6406 14.6462 42.0969 14.1923 42.6562 14.1923C43.2156 14.1923 43.6719 14.6462 43.6719 15.2115V17.25C43.6719 17.8154 43.2156 18.2692 42.6562 18.2692C42.0969 18.2692 41.6406 17.8154 41.6406 17.25V15.2115ZM46.7188 15.2115C46.7188 14.6462 47.175 14.1923 47.7344 14.1923C48.2938 14.1923 48.75 14.6462 48.75 15.2115V17.25C48.75 17.8154 48.2938 18.2692 47.7344 18.2692C47.175 18.2692 46.7188 17.8154 46.7188 17.25V15.2115ZM51.7969 15.2115C51.7969 14.6462 52.2531 14.1923 52.8125 14.1923C53.3719 14.1923 53.8281 14.6462 53.8281 15.2115V17.25C53.8281 17.8154 53.3719 18.2692 52.8125 18.2692C52.2531 18.2692 51.7969 17.8154 51.7969 17.25V15.2115ZM56.875 15.2115C56.875 14.6462 57.3312 14.1923 57.8906 14.1923C58.45 14.1923 58.9062 14.6462 58.9062 15.2115V17.25C58.9062 17.8154 58.45 18.2692 57.8906 18.2692C57.3312 18.2692 56.875 17.8154 56.875 17.25V15.2115Z" fill="#7895CB"/>
<path fill-rule="evenodd" clip-rule="evenodd" d="M60.9375 28.159V52.9231C60.9375 54.0498 60.029 54.9615 58.9062 54.9615H6.09375C4.97101 54.9615 4.0625 54.0498 4.0625 52.9231V28.159L28.4375 33.6851V37.6346C28.4375 38.7613 29.346 39.6731 30.4688 39.6731H34.5312C35.654 39.6731 36.5625 38.7613 36.5625 37.6346V33.6811L60.9375 28.159ZM6.09375 49.8654C6.09375 49.3 6.54999 48.8462 7.10938 48.8462H57.8906C58.45 48.8462 58.8322 49.5 58.8322 50C58.8322 50.5654 58.45 50.8846 57.8906 50.8846H7.10938C6.54999 50.8846 6.09375 50.4307 6.09375 49.8654Z" fill="#A0BFE0"/>
<path d="M30.4688 31.5192H34.5312V37.6346H30.4688V31.5192Z" fill="white"/>
</svg>
