<svg width="65" height="65" viewBox="0 0 65 65" fill="none" xmlns="http://www.w3.org/2000/svg">
<path d="M8.5 20.5H47.5C42.8777 11.2911 38.8993 8.07926 28.5 7C18.2029 7.32702 13.8862 10.364 8.5 20.5Z" fill="#A0BFE0"/>
<path d="M7.99994 21H47.9999C49.3503 26.6914 49.2441 29.7493 47.9999 35H7.99994C6.64725 29.0028 6.67774 25.8935 7.99994 21Z" fill="#C5DFF8"/>
<path d="M8.27209 20.7085H47.6889" stroke="#4A55A2" stroke-width="2" stroke-linecap="round" stroke-linejoin="round"/>
<path d="M8 35H47.5C45.1769 42.9889 40.1762 45.7075 28 49C17.4369 46.3795 12.7166 44.1277 8 35Z" fill="#7895CB" stroke="black"/>
<path d="M8.27209 34.646H47.6889" stroke="#4A55A2" stroke-width="2" stroke-linecap="round" stroke-linejoin="round"/>
<path d="M19.8272 20.5C19.4667 22.7319 19.2694 25.1507 19.2694 27.6772C19.2694 30.2036 19.4667 32.6225 19.8272 34.8543H36.1338C36.4943 32.6225 36.6916 30.2036 36.6916 27.6772C36.6916 25.1507 36.4943 22.7319 36.1338 20.5H19.8272Z" fill="white"/>
<path d="M19.8272 20.5C19.4667 22.7319 19.2694 25.1507 19.2694 27.6772C19.2694 30.2036 19.4667 32.6225 19.8272 34.8543M19.8272 20.5C21.0697 12.808 24.2515 7.33691 27.9805 7.33691C31.7095 7.33691 34.8912 12.808 36.1338 20.5M19.8272 20.5H36.1338M36.1338 20.5C36.4943 22.7319 36.6916 25.1507 36.6916 27.6772C36.6916 30.2036 36.4943 32.6225 36.1338 34.8543M36.1338 34.8543C34.8912 42.5463 31.7095 48.0174 27.9805 48.0174C24.2515 48.0174 21.0697 42.5463 19.8272 34.8543M36.1338 34.8543H19.8272" stroke="#4A55A2" stroke-width="2" stroke-linecap="round" stroke-linejoin="round"/>
<path d="M27.9804 48.5839C39.5267 48.5839 48.8868 39.2237 48.8868 27.6774C48.8868 16.1311 39.5267 6.771 27.9804 6.771C16.4341 6.771 7.07397 16.1311 7.07397 27.6774C7.07397 39.2237 16.4341 48.5839 27.9804 48.5839Z" stroke="#4A55A2" stroke-width="2" stroke-linecap="round" stroke-linejoin="round"/>
<path d="M57.4139 43.0873C57.9331 44.2996 58.0603 45.6439 57.7775 46.932C57.4948 48.2202 56.8162 49.3876 55.837 50.271C54.8577 51.1543 53.6267 51.7093 52.3163 51.8582C51.006 52.0071 49.6818 51.7425 48.5293 51.1014L42.9789 57.5323C42.5317 57.9734 41.9283 58.2198 41.3002 58.2177C40.6722 58.2155 40.0704 57.9651 39.6263 57.521C39.1822 57.0769 38.9317 56.4752 38.9296 55.8471C38.9274 55.219 39.1738 54.6156 39.6148 54.1684L46.0459 48.618C45.4048 47.4655 45.1402 46.1414 45.2891 44.831C45.438 43.5206 45.9929 42.2896 46.8762 41.3103C47.7595 40.331 48.927 39.6525 50.2151 39.3697C51.5033 39.0869 52.8476 39.2141 54.0599 39.7333L49.9046 43.8788L50.4685 46.6788L53.2685 47.2428L57.4139 43.0873Z" fill="white" stroke="#4A55A2" stroke-width="2" stroke-linecap="round" stroke-linejoin="round"/>
</svg>
