<svg width="20" height="20" viewBox="0 0 20 20" fill="none" xmlns="http://www.w3.org/2000/svg">
<g clip-path="url(#clip0_343_97)">
<path d="M20 19.1665H0V19.9998H20V19.1665Z" fill="white"/>
<path d="M16.6667 14.9998H11.6667C11.5562 14.9998 11.4502 14.9559 11.372 14.8778C11.2939 14.7997 11.25 14.6937 11.25 14.5832V4.58317C11.25 4.47266 11.2939 4.36668 11.372 4.28854C11.4502 4.2104 11.5562 4.1665 11.6667 4.1665H16.6667C16.7772 4.1665 16.8832 4.2104 16.9613 4.28854C17.0394 4.36668 17.0833 4.47266 17.0833 4.58317V14.5832C17.0833 14.6937 17.0394 14.7997 16.9613 14.8778C16.8832 14.9559 16.7772 14.9998 16.6667 14.9998ZM12.0833 14.1665H16.25V4.99984H12.0833V14.1665Z" fill="white"/>
<path d="M8.33333 20H1.66667C1.55616 20 1.45018 19.9561 1.37204 19.878C1.2939 19.7998 1.25 19.6938 1.25 19.5833V7.91667C1.25 7.80616 1.2939 7.70018 1.37204 7.62204C1.45018 7.5439 1.55616 7.5 1.66667 7.5H8.33333C8.44384 7.5 8.54982 7.5439 8.62796 7.62204C8.7061 7.70018 8.75 7.80616 8.75 7.91667V19.5833C8.75 19.6938 8.7061 19.7998 8.62796 19.878C8.54982 19.9561 8.44384 20 8.33333 20ZM2.08333 19.1667H7.91667V8.33333H2.08333V19.1667Z" fill="white"/>
<path d="M18.7498 19.5833H17.9165V15H11.6665C11.556 15 11.45 14.9561 11.3719 14.878C11.2937 14.7998 11.2498 14.6938 11.2498 14.5833V0.833333H3.74984V7.91667H2.9165V0.416667C2.9165 0.30616 2.9604 0.200179 3.03854 0.122039C3.11668 0.0438987 3.22266 0 3.33317 0L11.6665 0C11.777 0 11.883 0.0438987 11.9611 0.122039C12.0393 0.200179 12.0832 0.30616 12.0832 0.416667V14.1667H18.3332C18.4437 14.1667 18.5497 14.2106 18.6278 14.2887C18.7059 14.3668 18.7498 14.4728 18.7498 14.5833V19.5833Z" fill="white"/>
<path d="M10.4168 7.5H9.5835V8.33333H10.4168V7.5Z" fill="white"/>
<path d="M10.4168 9.1665H9.5835V9.99984H10.4168V9.1665Z" fill="white"/>
<path d="M10.4168 10.8335H9.5835V11.6668H10.4168V10.8335Z" fill="white"/>
<path d="M10.4168 2.5H9.5835V3.33333H10.4168V2.5Z" fill="white"/>
<path d="M10.4168 4.1665H9.5835V4.99984H10.4168V4.1665Z" fill="white"/>
<path d="M8.74984 2.5H7.9165V3.33333H8.74984V2.5Z" fill="white"/>
<path d="M8.75 4.1665H6.25V4.99984H8.75V4.1665Z" fill="white"/>
<path d="M10.4165 5.8335H7.9165V6.66683H10.4165V5.8335Z" fill="white"/>
<path d="M7.08333 5.8335H6.25V6.66683H7.08333V5.8335Z" fill="white"/>
<path d="M7.0835 2.5H4.5835V3.33333H7.0835V2.5Z" fill="white"/>
<path d="M5.41683 4.1665H4.5835V4.99984H5.41683V4.1665Z" fill="white"/>
<path d="M5.41683 5.8335H4.5835V6.66683H5.41683V5.8335Z" fill="white"/>
<path d="M7.08333 9.1665H6.25V9.99984H7.08333V9.1665Z" fill="white"/>
<path d="M7.08333 10.8335H6.25V11.6668H7.08333V10.8335Z" fill="white"/>
<path d="M7.08333 12.5H6.25V13.3333H7.08333V12.5Z" fill="white"/>
<path d="M5.41683 10.8335H4.5835V11.6668H5.41683V10.8335Z" fill="white"/>
<path d="M5.4165 9.1665H2.9165V9.99984H5.4165V9.1665Z" fill="white"/>
<path d="M3.74984 10.8335H2.9165V11.6668H3.74984V10.8335Z" fill="white"/>
<path d="M5.4165 12.5H2.9165V13.3333H5.4165V12.5Z" fill="white"/>
<path d="M7.08333 14.1665H6.25V14.9998H7.08333V14.1665Z" fill="white"/>
<path d="M7.08333 15.8335H6.25V16.6668H7.08333V15.8335Z" fill="white"/>
<path d="M7.08333 17.5H6.25V18.3333H7.08333V17.5Z" fill="white"/>
<path d="M5.41683 14.1665H4.5835V14.9998H5.41683V14.1665Z" fill="white"/>
<path d="M5.41683 17.5H4.5835V18.3333H5.41683V17.5Z" fill="white"/>
<path d="M3.74984 14.1665H2.9165V14.9998H3.74984V14.1665Z" fill="white"/>
<path d="M5.4165 15.8335H2.9165V16.6668H5.4165V15.8335Z" fill="white"/>
<path d="M3.74984 17.5H2.9165V18.3333H3.74984V17.5Z" fill="white"/>
<path d="M10.4168 12.5H9.5835V13.3333H10.4168V12.5Z" fill="white"/>
<path d="M10.4168 14.1665H9.5835V14.9998H10.4168V14.1665Z" fill="white"/>
<path d="M10.4168 15.8335H9.5835V16.6668H10.4168V15.8335Z" fill="white"/>
<path d="M13.75 15.8335H11.25V16.6668H13.75V15.8335Z" fill="white"/>
<path d="M15.4168 15.8335H14.5835V16.6668H15.4168V15.8335Z" fill="white"/>
<path d="M13.7498 12.5H12.9165V13.3333H13.7498V12.5Z" fill="white"/>
<path d="M15.4168 12.5H14.5835V13.3333H15.4168V12.5Z" fill="white"/>
<path d="M15.4165 10.8335H12.9165V11.6668H15.4165V10.8335Z" fill="white"/>
<path d="M13.7498 9.1665H12.9165V9.99984H13.7498V9.1665Z" fill="white"/>
<path d="M15.4168 9.1665H14.5835V9.99984H15.4168V9.1665Z" fill="white"/>
<path d="M15.4165 7.5H12.9165V8.33333H15.4165V7.5Z" fill="white"/>
<path d="M13.7498 5.8335H12.9165V6.66683H13.7498V5.8335Z" fill="white"/>
<path d="M15.4168 5.8335H14.5835V6.66683H15.4168V5.8335Z" fill="white"/>
<path d="M17.0833 15.8335H16.25V16.6668H17.0833V15.8335Z" fill="white"/>
<path d="M12.0835 17.5H9.5835V18.3333H12.0835V17.5Z" fill="white"/>
<path d="M13.7498 17.5H12.9165V18.3333H13.7498V17.5Z" fill="white"/>
<path d="M15.4168 17.5H14.5835V18.3333H15.4168V17.5Z" fill="white"/>
<path d="M17.0833 17.5H16.25V18.3333H17.0833V17.5Z" fill="white"/>
<path d="M17.4998 4.1665H11.6665V4.99984H17.4998V4.1665Z" fill="white"/>
<path d="M12.5 0H2.5V0.833333H12.5V0Z" fill="white"/>
<path d="M8.3335 7.5H0.833496V8.33333H8.3335V7.5Z" fill="white"/>
</g>
<defs>
<clipPath id="clip0_343_97">
<rect width="20" height="20" fill="white"/>
</clipPath>
</defs>
</svg>
