<svg width="20" height="20" viewBox="0 0 20 20" fill="none" xmlns="http://www.w3.org/2000/svg">
<g clip-path="url(#clip0_343_77)">
<path d="M17.9998 2.3998H16.7998V1.5998C16.7998 1.38763 16.7155 1.18415 16.5655 1.03412C16.4155 0.88409 16.212 0.799805 15.9998 0.799805H15.1998C14.9876 0.799805 14.7841 0.88409 14.6341 1.03412C14.4841 1.18415 14.3998 1.38763 14.3998 1.5998V2.3998H11.1998V1.5998C11.1998 1.38763 11.1155 1.18415 10.9655 1.03412C10.8155 0.88409 10.612 0.799805 10.3998 0.799805H9.5998C9.38763 0.799805 9.18415 0.88409 9.03412 1.03412C8.88409 1.18415 8.7998 1.38763 8.7998 1.5998V2.3998H5.5998V1.5998C5.5998 1.38763 5.51552 1.18415 5.36549 1.03412C5.21546 0.88409 5.01198 0.799805 4.7998 0.799805H3.9998C3.78763 0.799805 3.58415 0.88409 3.43412 1.03412C3.28409 1.18415 3.1998 1.38763 3.1998 1.5998V2.3998H1.9998C1.68154 2.3998 1.37632 2.52623 1.15128 2.75128C0.926233 2.97632 0.799805 3.28154 0.799805 3.5998V17.9998C0.799805 18.3181 0.926233 18.6233 1.15128 18.8483C1.37632 19.0734 1.68154 19.1998 1.9998 19.1998H17.9998C18.3181 19.1998 18.6233 19.0734 18.8483 18.8483C19.0734 18.6233 19.1998 18.3181 19.1998 17.9998V3.5998C19.1998 3.28154 19.0734 2.97632 18.8483 2.75128C18.6233 2.52623 18.3181 2.3998 17.9998 2.3998ZM15.1998 1.5998H15.9998V3.9998H15.1998V1.5998ZM9.5998 1.5998H10.3998V2.7518C10.3998 2.7518 10.3998 2.7518 10.3998 2.7998C10.3998 2.8478 10.3998 2.7998 10.3998 2.8558V3.9998H9.5998V1.5998ZM3.9998 1.5998H4.7998V3.9998H3.9998V1.5998ZM1.9998 3.1998H3.1998V3.9998C3.1998 4.21198 3.28409 4.41546 3.43412 4.56549C3.58415 4.71552 3.78763 4.7998 3.9998 4.7998H4.7998C5.01198 4.7998 5.21546 4.71552 5.36549 4.56549C5.51552 4.41546 5.5998 4.21198 5.5998 3.9998V3.1998H8.7998V3.9998C8.7998 4.21198 8.88409 4.41546 9.03412 4.56549C9.18415 4.71552 9.38763 4.7998 9.5998 4.7998H10.3998C10.612 4.7998 10.8155 4.71552 10.9655 4.56549C11.1155 4.41546 11.1998 4.21198 11.1998 3.9998V3.1998H14.3998V3.9998C14.3998 4.21198 14.4841 4.41546 14.6341 4.56549C14.7841 4.71552 14.9876 4.7998 15.1998 4.7998H15.9998C16.212 4.7998 16.4155 4.71552 16.5655 4.56549C16.7155 4.41546 16.7998 4.21198 16.7998 3.9998V3.1998H17.9998C18.1059 3.1998 18.2076 3.24195 18.2826 3.31696C18.3577 3.39198 18.3998 3.49372 18.3998 3.5998V6.3998H1.5998V3.5998C1.5998 3.49372 1.64195 3.39198 1.71696 3.31696C1.79198 3.24195 1.89372 3.1998 1.9998 3.1998ZM17.9998 18.3998H1.9998C1.89372 18.3998 1.79198 18.3577 1.71696 18.2826C1.64195 18.2076 1.5998 18.1059 1.5998 17.9998V7.1998H18.3998V17.9998C18.3998 18.1059 18.3577 18.2076 18.2826 18.2826C18.2076 18.3577 18.1059 18.3998 17.9998 18.3998Z" fill="white"/>
<path d="M16.3997 12H11.5997C11.4936 12 11.3919 12.0421 11.3169 12.1172C11.2418 12.1922 11.1997 12.2939 11.1997 12.4V16.4C11.1997 16.5061 11.2418 16.6078 11.3169 16.6828C11.3919 16.7579 11.4936 16.8 11.5997 16.8H16.3997C16.5058 16.8 16.6075 16.7579 16.6826 16.6828C16.7576 16.6078 16.7997 16.5061 16.7997 16.4V12.4C16.7997 12.2939 16.7576 12.1922 16.6826 12.1172C16.6075 12.0421 16.5058 12 16.3997 12ZM15.9997 16H11.9997V12.8H15.9997V16Z" fill="white"/>
<path d="M5.19971 8.7998H3.59971C3.49362 8.7998 3.39188 8.84195 3.31686 8.91696C3.24185 8.99198 3.19971 9.09372 3.19971 9.1998V10.7998C3.19971 10.9059 3.24185 11.0076 3.31686 11.0826C3.39188 11.1577 3.49362 11.1998 3.59971 11.1998H5.19971C5.30579 11.1998 5.40754 11.1577 5.48255 11.0826C5.55756 11.0076 5.59971 10.9059 5.59971 10.7998V9.1998C5.59971 9.09372 5.55756 8.99198 5.48255 8.91696C5.40754 8.84195 5.30579 8.7998 5.19971 8.7998ZM4.79971 10.3998H3.99971V9.5998H4.79971V10.3998Z" fill="white"/>
<path d="M8.3999 8.7998H6.7999C6.69382 8.7998 6.59207 8.84195 6.51706 8.91696C6.44204 8.99198 6.3999 9.09372 6.3999 9.1998V10.7998C6.3999 10.9059 6.44204 11.0076 6.51706 11.0826C6.59207 11.1577 6.69382 11.1998 6.7999 11.1998H8.3999C8.50599 11.1998 8.60773 11.1577 8.68275 11.0826C8.75776 11.0076 8.7999 10.9059 8.7999 10.7998V9.1998C8.7999 9.09372 8.75776 8.99198 8.68275 8.91696C8.60773 8.84195 8.50599 8.7998 8.3999 8.7998ZM7.9999 10.3998H7.1999V9.5998H7.9999V10.3998Z" fill="white"/>
<path d="M5.19971 12.7998H3.59971C3.49362 12.7998 3.39188 12.8419 3.31686 12.917C3.24185 12.992 3.19971 13.0937 3.19971 13.1998V14.7998C3.19971 14.9059 3.24185 15.0076 3.31686 15.0826C3.39188 15.1577 3.49362 15.1998 3.59971 15.1998H5.19971C5.30579 15.1998 5.40754 15.1577 5.48255 15.0826C5.55756 15.0076 5.59971 14.9059 5.59971 14.7998V13.1998C5.59971 13.0937 5.55756 12.992 5.48255 12.917C5.40754 12.8419 5.30579 12.7998 5.19971 12.7998ZM4.79971 14.3998H3.99971V13.5998H4.79971V14.3998Z" fill="white"/>
<path d="M8.3999 12.7998H6.7999C6.69382 12.7998 6.59207 12.8419 6.51706 12.917C6.44204 12.992 6.3999 13.0937 6.3999 13.1998V14.7998C6.3999 14.9059 6.44204 15.0076 6.51706 15.0826C6.59207 15.1577 6.69382 15.1998 6.7999 15.1998H8.3999C8.50599 15.1998 8.60773 15.1577 8.68275 15.0826C8.75776 15.0076 8.7999 14.9059 8.7999 14.7998V13.1998C8.7999 13.0937 8.75776 12.992 8.68275 12.917C8.60773 12.8419 8.50599 12.7998 8.3999 12.7998ZM7.9999 14.3998H7.1999V13.5998H7.9999V14.3998Z" fill="white"/>
<path d="M11.5997 11.1998H13.1997C13.3058 11.1998 13.4075 11.1577 13.4826 11.0826C13.5576 11.0076 13.5997 10.9059 13.5997 10.7998V9.1998C13.5997 9.09372 13.5576 8.99198 13.4826 8.91696C13.4075 8.84195 13.3058 8.7998 13.1997 8.7998H11.5997C11.4936 8.7998 11.3919 8.84195 11.3169 8.91696C11.2418 8.99198 11.1997 9.09372 11.1997 9.1998V10.7998C11.1997 10.9059 11.2418 11.0076 11.3169 11.0826C11.3919 11.1577 11.4936 11.1998 11.5997 11.1998ZM11.9997 9.5998H12.7997V10.3998H11.9997V9.5998Z" fill="white"/>
<path d="M16.3999 8.7998H14.7999C14.6938 8.7998 14.5921 8.84195 14.5171 8.91696C14.442 8.99198 14.3999 9.09372 14.3999 9.1998V10.7998C14.3999 10.9059 14.442 11.0076 14.5171 11.0826C14.5921 11.1577 14.6938 11.1998 14.7999 11.1998H16.3999C16.506 11.1998 16.6077 11.1577 16.6827 11.0826C16.7578 11.0076 16.7999 10.9059 16.7999 10.7998V9.1998C16.7999 9.09372 16.7578 8.99198 16.6827 8.91696C16.6077 8.84195 16.506 8.7998 16.3999 8.7998ZM15.9999 10.3998H15.1999V9.5998H15.9999V10.3998Z" fill="white"/>
</g>
<defs>
<clipPath id="clip0_343_77">
<rect width="20" height="20" fill="white"/>
</clipPath>
</defs>
</svg>
