<svg width="24" height="24" viewBox="0 0 24 24" fill="none" xmlns="http://www.w3.org/2000/svg">
<path d="M21.5625 20.6759H20.625V11.3947H21.5625C21.6184 11.3947 21.6733 11.3804 21.7221 11.3532C21.7709 11.326 21.812 11.2869 21.8414 11.2394C21.8708 11.1919 21.8876 11.1377 21.8903 11.0819C21.8929 11.0261 21.8812 10.9705 21.8563 10.9205L19.6063 6.39611C19.5791 6.34146 19.5372 6.29549 19.4853 6.26336C19.4334 6.23123 19.3735 6.21422 19.3125 6.21423H13.2204L12.6954 5.68923C12.5915 5.58643 12.4658 5.50838 12.3276 5.46086V4.86498L14.3511 4.28842C14.4197 4.26893 14.4801 4.22758 14.5231 4.17065C14.5662 4.11372 14.5894 4.04431 14.5894 3.97295C14.5894 3.90159 14.5662 3.83218 14.5231 3.77525C14.4801 3.71832 14.4197 3.67697 14.3511 3.65748L12.3281 3.08054V2.99561C12.3281 2.90858 12.2936 2.82512 12.232 2.76359C12.1705 2.70205 12.087 2.66748 12 2.66748C11.913 2.66748 11.8295 2.70205 11.768 2.76359C11.7064 2.82512 11.6719 2.90858 11.6719 2.99561V5.46123C11.5336 5.50875 11.4079 5.58681 11.304 5.68961L10.779 6.21461H4.6875C4.62644 6.21461 4.56658 6.23165 4.51468 6.26381C4.46277 6.29598 4.42087 6.34199 4.39369 6.39667L2.14369 10.921C2.11895 10.971 2.10737 11.0265 2.11004 11.0823C2.11271 11.138 2.12955 11.1921 2.15896 11.2395C2.18837 11.2869 2.22938 11.3261 2.27812 11.3532C2.32686 11.3803 2.38171 11.3946 2.4375 11.3947H3.375V20.6759H2.4375C2.35048 20.6759 2.26702 20.7105 2.20548 20.772C2.14395 20.8336 2.10938 20.917 2.10938 21.004C2.10938 21.0911 2.14395 21.1745 2.20548 21.2361C2.26702 21.2976 2.35048 21.3322 2.4375 21.3322H21.5625C21.6495 21.3322 21.733 21.2976 21.7945 21.2361C21.8561 21.1745 21.8906 21.0911 21.8906 21.004C21.8906 20.917 21.8561 20.8336 21.7945 20.772C21.733 20.7105 21.6495 20.6759 21.5625 20.6759ZM19.9688 20.6759H16.6172V12.395L16.7884 12.5662C16.9553 12.7359 17.1782 12.8391 17.4155 12.8566C17.6529 12.8742 17.8886 12.8049 18.0786 12.6616C18.2687 12.5183 18.4001 12.3108 18.4486 12.0777C18.497 11.8447 18.459 11.602 18.3418 11.3949H19.9688V20.6759ZM13.5624 20.6759H10.4376V16.5114H13.5624V20.6759ZM13.8906 15.8549H10.1094C10.0224 15.8549 9.93895 15.8895 9.87742 15.951C9.81588 16.0126 9.78131 16.096 9.78131 16.183V20.6759H8.03906V11.7387L12 7.77779L15.9609 11.7387V20.6761H14.2187V16.1832C14.2187 16.0962 14.1841 16.0127 14.1226 15.9512C14.061 15.8897 13.9776 15.8549 13.8906 15.8549ZM19.1093 6.87029L21.0328 10.7384H17.7448L13.8767 6.87029H19.1093ZM13.0644 3.97267L12.3281 4.18267V3.76286L13.0644 3.97267ZM11.7679 6.15367C11.8295 6.09225 11.913 6.05777 12 6.05777C12.087 6.05777 12.1705 6.09225 12.2321 6.15367L17.7165 11.638C17.778 11.6996 17.8125 11.7831 17.8125 11.8701C17.8125 11.9571 17.778 12.0405 17.7165 12.1021C17.654 12.1619 17.5709 12.1953 17.4844 12.1953C17.3979 12.1953 17.3147 12.1619 17.2523 12.1021L12.2319 7.08198C12.2015 7.05149 12.1653 7.02729 12.1255 7.01079C12.0857 6.99428 12.043 6.98579 11.9999 6.98579C11.9568 6.98579 11.9141 6.99428 11.8743 7.01079C11.8345 7.02729 11.7983 7.05149 11.7679 7.08198L6.74775 12.1021C6.68611 12.1635 6.60264 12.198 6.51562 12.198C6.42861 12.198 6.34514 12.1635 6.2835 12.1021C6.222 12.0405 6.18746 11.9571 6.18746 11.8701C6.18746 11.7831 6.222 11.6996 6.2835 11.638L11.7679 6.15367ZM4.89075 6.87048H10.1233L6.25519 10.7386H2.96719L4.89075 6.87048ZM4.03125 11.3947H5.65837C5.5527 11.5805 5.51122 11.7959 5.54038 12.0077C5.56953 12.2194 5.66768 12.4157 5.81963 12.566C6.00438 12.7503 6.25472 12.8539 6.51572 12.8539C6.77672 12.8539 7.02706 12.7503 7.21181 12.566L7.383 12.3948V20.6759H4.03125V11.3947Z" fill="white"/>
<path d="M12 12.7227C12.2596 12.7227 12.5133 12.6457 12.7292 12.5015C12.945 12.3572 13.1133 12.1523 13.2126 11.9124C13.3119 11.6726 13.3379 11.4087 13.2873 11.1541C13.2366 10.8995 13.1116 10.6656 12.9281 10.4821C12.7445 10.2985 12.5107 10.1735 12.2561 10.1229C12.0015 10.0722 11.7376 10.0982 11.4977 10.1976C11.2579 10.2969 11.0529 10.4651 10.9087 10.681C10.7645 10.8968 10.6875 11.1506 10.6875 11.4102C10.6879 11.7581 10.8263 12.0917 11.0724 12.3378C11.3184 12.5839 11.652 12.7223 12 12.7227ZM12 10.7539C12.1298 10.7539 12.2567 10.7924 12.3646 10.8645C12.4725 10.9366 12.5566 11.0391 12.6063 11.159C12.656 11.2789 12.669 11.4109 12.6436 11.5382C12.6183 11.6655 12.5558 11.7824 12.464 11.8742C12.3723 11.966 12.2553 12.0285 12.128 12.0538C12.0007 12.0791 11.8688 12.0661 11.7489 12.0165C11.6289 11.9668 11.5265 11.8827 11.4543 11.7747C11.3822 11.6668 11.3438 11.54 11.3438 11.4102C11.3438 11.2361 11.4129 11.0692 11.536 10.9461C11.659 10.823 11.826 10.7539 12 10.7539Z" fill="white"/>
<path d="M15.1406 14.9961V13.7036C15.1406 13.6166 15.1061 13.5331 15.0445 13.4716C14.983 13.4101 14.8995 13.3755 14.8125 13.3755H9.1875C9.10048 13.3755 9.01702 13.4101 8.95548 13.4716C8.89394 13.5331 8.85938 13.6166 8.85938 13.7036V14.9961C8.85938 15.0831 8.89394 15.1665 8.95548 15.2281C9.01702 15.2896 9.10048 15.3242 9.1875 15.3242H14.8125C14.8995 15.3242 14.983 15.2896 15.0445 15.2281C15.1061 15.1665 15.1406 15.0831 15.1406 14.9961ZM14.4844 14.6679H9.51562V14.0317H14.4844V14.6679Z" fill="white"/>
<path d="M6.35347 13.3755H5.06104C4.97401 13.3755 4.89055 13.4101 4.82902 13.4716C4.76748 13.5331 4.73291 13.6166 4.73291 13.7036V14.9961C4.73291 15.0831 4.76748 15.1665 4.82902 15.2281C4.89055 15.2896 4.97401 15.3242 5.06104 15.3242H6.35347C6.4405 15.3242 6.52396 15.2896 6.58549 15.2281C6.64703 15.1665 6.6816 15.0831 6.6816 14.9961V13.7036C6.6816 13.6166 6.64703 13.5331 6.58549 13.4716C6.52396 13.4101 6.4405 13.3755 6.35347 13.3755ZM6.02535 14.6679H5.38916V14.0317H6.02535V14.6679Z" fill="white"/>
<path d="M6.35347 15.855H5.06104C4.97401 15.855 4.89055 15.8896 4.82902 15.9511C4.76748 16.0126 4.73291 16.0961 4.73291 16.1831V17.4748C4.73291 17.5618 4.76748 17.6453 4.82902 17.7068C4.89055 17.7683 4.97401 17.8029 5.06104 17.8029H6.35347C6.4405 17.8029 6.52396 17.7683 6.58549 17.7068C6.64703 17.6453 6.6816 17.5618 6.6816 17.4748V16.1831C6.6816 16.0961 6.64703 16.0126 6.58549 15.9511C6.52396 15.8896 6.4405 15.855 6.35347 15.855ZM6.02535 17.1474H5.38916V16.5112H6.02535V17.1474Z" fill="white"/>
<path d="M17.3188 13.7036V14.9961C17.3188 15.0831 17.3534 15.1665 17.415 15.2281C17.4765 15.2896 17.5599 15.3242 17.647 15.3242H18.9394C19.0264 15.3242 19.1099 15.2896 19.1714 15.2281C19.233 15.1665 19.2675 15.0831 19.2675 14.9961V13.7036C19.2675 13.6166 19.233 13.5331 19.1714 13.4716C19.1099 13.4101 19.0264 13.3755 18.9394 13.3755H17.647C17.5599 13.3755 17.4765 13.4101 17.415 13.4716C17.3534 13.5331 17.3188 13.6166 17.3188 13.7036ZM17.9751 14.0317H18.6113V14.6679H17.9751V14.0317Z" fill="white"/>
<path d="M18.9394 15.855H17.647C17.5599 15.855 17.4765 15.8896 17.415 15.9511C17.3534 16.0126 17.3188 16.0961 17.3188 16.1831V17.4748C17.3188 17.5618 17.3534 17.6453 17.415 17.7068C17.4765 17.7683 17.5599 17.8029 17.647 17.8029H18.9394C19.0264 17.8029 19.1099 17.7683 19.1714 17.7068C19.233 17.6453 19.2675 17.5618 19.2675 17.4748V16.1831C19.2675 16.0961 19.233 16.0126 19.1714 15.9511C19.1099 15.8896 19.0264 15.855 18.9394 15.855ZM18.6113 17.1474H17.9751V16.5112H18.6113V17.1474Z" fill="white"/>
</svg>
