<svg width="20" height="20" viewBox="0 0 20 20" fill="none" xmlns="http://www.w3.org/2000/svg">
<g clip-path="url(#clip0_343_87)">
<path d="M17.0625 15.625L12.5 13.9437V13.0687C13.1919 12.6709 13.7794 12.1144 14.214 11.4451C14.6487 10.7757 14.9181 10.0126 15 9.21875C15.1917 9.10809 15.3505 8.94853 15.4604 8.75636C15.5702 8.5642 15.627 8.34632 15.625 8.125V6.875C15.6248 6.6558 15.5669 6.44051 15.4572 6.25073C15.3475 6.06095 15.1898 5.90335 15 5.79375V5C15 3.67392 14.4732 2.40215 13.5355 1.46447C12.5979 0.526784 11.3261 0 10 0C8.67392 0 7.40215 0.526784 6.46447 1.46447C5.52678 2.40215 5 3.67392 5 5V5.79375C4.81016 5.90335 4.65249 6.06095 4.54279 6.25073C4.43309 6.44051 4.37522 6.6558 4.375 6.875V8.125C4.37302 8.34632 4.42984 8.5642 4.53965 8.75636C4.64946 8.94853 4.80832 9.10809 5 9.21875C5.08193 10.0126 5.35132 10.7757 5.78597 11.4451C6.22063 12.1144 6.8081 12.6709 7.5 13.0687V13.9437L2.9375 15.625C2.36875 15.7688 0 16.4812 0 18.125V19.375C0 19.5408 0.065848 19.6997 0.183058 19.8169C0.300269 19.9342 0.45924 20 0.625 20H19.375C19.5408 20 19.6997 19.9342 19.8169 19.8169C19.9342 19.6997 20 19.5408 20 19.375V18.125C20 16.5063 17.6312 15.8 17.0625 15.625ZM6.25 8.75C6.25 8.58424 6.18415 8.42527 6.06694 8.30806C5.94973 8.19085 5.79076 8.125 5.625 8.125V6.875C5.79076 6.875 5.94973 6.80915 6.06694 6.69194C6.18415 6.57473 6.25 6.41576 6.25 6.25C7.3375 6.1875 9.45 5.91875 10.2813 4.8125C11.2981 5.56926 12.4927 6.05141 13.75 6.2125V6.25C13.75 6.41576 13.8158 6.57473 13.9331 6.69194C14.0503 6.80915 14.2092 6.875 14.375 6.875V8.125C14.2092 8.125 14.0503 8.19085 13.9331 8.30806C13.8158 8.42527 13.75 8.58424 13.75 8.75C13.7486 9.45856 13.5465 10.1522 13.1671 10.7506C12.7877 11.3491 12.2465 11.8278 11.6062 12.1312C11.4999 12.1819 11.41 12.2616 11.347 12.3611C11.284 12.4606 11.2503 12.5759 11.25 12.6937V14.2C11.1218 14.4244 10.9411 14.6144 10.7234 14.7537C10.5057 14.893 10.2575 14.9775 10 15C9.74252 14.9775 9.49432 14.893 9.27664 14.7537C9.05895 14.6144 8.87825 14.4244 8.75 14.2V12.6937C8.74967 12.5759 8.71605 12.4606 8.65301 12.3611C8.58998 12.2616 8.50011 12.1819 8.39375 12.1312C7.75348 11.8278 7.2123 11.3491 6.83289 10.7506C6.45349 10.1522 6.25139 9.45856 6.25 8.75ZM18.75 18.75H1.25V18.125C1.25 17.6375 2.45 17.0625 3.275 16.875H3.34375L7.88125 15.175C8.12937 15.5035 8.44919 15.7712 8.81635 15.9574C9.18351 16.1437 9.58833 16.2438 10 16.25C10.4153 16.2387 10.8225 16.1319 11.1899 15.9379C11.5574 15.7439 11.8752 15.4679 12.1187 15.1312L16.6562 16.8313H16.725C17.5563 17.0375 18.75 17.6125 18.75 18.0813V18.75Z" fill="white"/>
</g>
<defs>
<clipPath id="clip0_343_87">
<rect width="20" height="20" fill="white"/>
</clipPath>
</defs>
</svg>
