<svg width="45" height="45" viewBox="0 0 45 45" fill="none" xmlns="http://www.w3.org/2000/svg">
<rect width="45" height="45" fill="white"/>
<path d="M16.438 22.118C10.7633 21.6113 7.926 19.8 7.926 16.684C7.926 15.6707 8.458 14.8853 9.522 14.328C10.5607 13.7453 11.8907 13.454 13.512 13.454L16.248 13.682C16.3747 14.594 16.438 17.406 16.438 22.118ZM16.058 35.228C16.3367 35.5067 16.894 35.722 17.73 35.874C18.5407 36.0513 19.2373 36.14 19.82 36.14C20.4027 36.14 20.8713 36.064 21.226 35.912L20.998 13.986C21.3527 13.5807 21.6947 12.9093 22.024 11.972C22.328 11.0347 22.48 10.4647 22.48 10.262C22.48 10.034 22.4547 9.89467 22.404 9.844C22.328 9.768 21.5173 9.692 19.972 9.616C18.4013 9.51466 16.8307 9.464 15.26 9.464C13.664 9.464 12.2453 9.55267 11.004 9.73C9.76267 9.90733 8.496 10.2367 7.204 10.718C5.88667 11.174 4.848 11.896 4.088 12.884C3.30267 13.8467 2.91 15.088 2.91 16.608C2.91 18.128 3.37867 19.5213 4.316 20.788C5.228 22.0547 6.34267 23.0173 7.66 23.676C10.396 25.0693 12.8533 25.9053 15.032 26.184L16.438 26.336C16.3367 31.504 16.21 34.468 16.058 35.228Z" fill="url(#paint0_linear_305_93)"/>
<path d="M28.524 22.118C31.5133 21.8393 33.7047 21.1427 35.098 20.028C36.5167 18.888 37.226 17.7733 37.226 16.684C37.226 15.5693 36.6813 14.7587 35.592 14.252C34.5027 13.72 33.122 13.454 31.45 13.454C30.5633 13.454 29.664 13.53 28.752 13.682C28.6 14.7713 28.524 17.5833 28.524 22.118ZM28.942 35.228C28.6633 35.5067 28.106 35.722 27.27 35.874C26.434 36.0513 25.7373 36.14 25.18 36.14C24.6227 36.14 24.1413 36.064 23.736 35.912L23.964 13.986C23.6347 13.5807 23.3053 12.9093 22.976 11.972C22.672 11.0347 22.52 10.4647 22.52 10.262C22.52 10.034 22.5453 9.89467 22.596 9.844C22.6467 9.768 23.4447 9.692 24.99 9.616C26.5607 9.51466 28.144 9.464 29.74 9.464C31.336 9.464 32.7547 9.55267 33.996 9.73C35.2373 9.90733 36.5293 10.224 37.872 10.68C39.2147 11.1107 40.2787 11.8073 41.064 12.77C41.8493 13.7327 42.242 14.974 42.242 16.494C42.242 17.9887 41.71 19.382 40.646 20.674C39.582 21.966 38.138 23.0553 36.314 23.942C36.314 24.3473 37.112 26.1713 38.708 29.414C40.304 32.6313 41.5707 34.7087 42.508 35.646C42.5333 35.6713 42.546 35.7093 42.546 35.76C42.546 35.836 42.3433 35.9627 41.938 36.14C40.8233 36.672 39.62 36.938 38.328 36.938L37.378 36.862C36.8207 36.3047 35.8453 34.4553 34.452 31.314C33.084 28.1727 32.324 26.2473 32.172 25.538C31.868 25.7153 30.6647 25.9813 28.562 26.336C28.6127 31.428 28.7393 34.392 28.942 35.228Z" fill="#4A55A2"/>
<path d="M8 26C9.32608 26 10.5979 26.5268 11.5355 27.4645C12.4732 28.4021 13 29.6739 13 31C13 32.3261 12.4732 33.5979 11.5355 34.5355C10.5979 35.4732 9.32608 36 8 36V34.2747C8.86851 34.2747 9.70144 33.9297 10.3156 33.3156C10.9297 32.7014 11.2747 31.8685 11.2747 31C11.2747 30.1315 10.9297 29.2986 10.3156 28.6844C9.70144 28.0703 8.86851 27.7253 8 27.7253V26Z" fill="#4A55A2"/>
<path d="M3.05457 30.2633C2.93831 31.0438 3.00841 31.8406 3.25914 32.5888C3.50987 33.3369 3.9341 34.0151 4.49716 34.5679L5.70584 33.3368C5.33708 32.9747 5.05923 32.5306 4.89501 32.0406C4.7308 31.5506 4.68489 31.0287 4.76103 30.5175L3.05457 30.2633Z" fill="#A0BFE0"/>
<path d="M4.78533 34.8296C5.59406 35.5085 6.59695 35.9139 7.65026 35.9878L7.77094 34.2667C7.08108 34.2183 6.42425 33.9528 5.89458 33.5082L4.78533 34.8296Z" fill="#C5DFF8"/>
<path d="M7.55805 26.0196C6.50629 26.1129 5.51107 26.5368 4.71503 27.2305C3.919 27.9242 3.36301 28.8522 3.12676 29.8813L4.80831 30.2673C4.96304 29.5933 5.32718 28.9856 5.84854 28.5312C6.3699 28.0769 7.02171 27.7992 7.71055 27.7381L7.55805 26.0196Z" fill="#7895CB"/>
<defs>
<linearGradient id="paint0_linear_305_93" x1="23" y1="5" x2="2" y2="40" gradientUnits="userSpaceOnUse">
<stop stop-color="#4A55A2"/>
<stop offset="0.826231" stop-color="#7895CB"/>
<stop offset="0.893939" stop-color="#A0BFE0"/>
<stop offset="1" stop-color="#C5DFF8"/>
</linearGradient>
</defs>
</svg>
