<svg width="135" height="38" viewBox="0 0 135 38" fill="none" xmlns="http://www.w3.org/2000/svg">
<path d="M6.562 13.118C12.2367 12.6113 15.074 10.8 15.074 7.684C15.074 6.67067 14.542 5.88533 13.478 5.328C12.4393 4.74533 11.1093 4.454 9.488 4.454L6.752 4.682C6.62533 5.594 6.562 8.406 6.562 13.118ZM6.942 26.228C6.66333 26.5067 6.106 26.722 5.27 26.874C4.45933 27.0513 3.76267 27.14 3.18 27.14C2.59733 27.14 2.12867 27.064 1.774 26.912L2.002 4.986C1.64733 4.58067 1.30533 3.90933 0.976 2.972C0.672 2.03467 0.52 1.46467 0.52 1.262C0.52 1.034 0.545333 0.894665 0.596 0.843998C0.672 0.767999 1.48267 0.691999 3.028 0.615998C4.59867 0.514665 6.16933 0.463998 7.74 0.463998C9.336 0.463998 10.7547 0.552665 11.996 0.729999C13.2373 0.907332 14.504 1.23666 15.796 1.718C17.1133 2.174 18.152 2.896 18.912 3.884C19.6973 4.84667 20.09 6.088 20.09 7.608C20.09 9.128 19.6213 10.5213 18.684 11.788C17.772 13.0547 16.6573 14.0173 15.34 14.676C12.604 16.0693 10.1467 16.9053 7.968 17.184L6.562 17.336C6.66333 22.504 6.79 25.468 6.942 26.228ZM33.7629 17.526C33.7629 20.6927 33.8009 22.542 33.8769 23.074C34.0795 24.4673 34.5102 25.468 35.1689 26.076C35.1689 26.3547 34.6622 26.7727 33.6489 27.33C32.6609 27.8873 31.7615 28.166 30.9509 28.166C30.7229 28.166 30.4822 27.824 30.2289 27.14C29.9755 26.4813 29.8235 25.9873 29.7729 25.658C29.7475 25.3287 29.7222 25.164 29.6969 25.164L29.5829 25.24C28.2402 26.304 26.6695 26.836 24.8709 26.836C23.0722 26.836 21.6789 26.4053 20.6909 25.544C19.7282 24.6573 19.2469 23.5047 19.2469 22.086C19.2469 20.6673 19.5509 19.4767 20.1589 18.514C20.7922 17.526 21.5269 16.7787 22.3629 16.272C23.1989 15.7653 24.1235 15.36 25.1369 15.056C26.6822 14.5493 27.8982 14.296 28.7849 14.296L28.8609 14.258C28.8609 13.0167 27.2902 12.396 24.1489 12.396C22.9075 12.396 21.9829 12.4467 21.3749 12.548H21.3369C21.3369 12.0413 21.4889 11.408 21.7929 10.648C22.1222 9.888 22.3882 9.394 22.5909 9.166C22.8189 8.938 23.7309 8.824 25.3269 8.824C28.2149 8.824 30.3429 9.38133 31.7109 10.496C33.0789 11.5853 33.7629 13.2827 33.7629 15.588V17.526ZM29.5449 19.958V18.514C29.5449 17.9567 29.5322 17.678 29.5069 17.678C27.8095 17.678 26.3402 18.1213 25.0989 19.008C24.3135 19.5653 23.9209 20.262 23.9209 21.098C23.9209 21.63 24.1109 22.0733 24.4909 22.428C24.8709 22.7827 25.4409 22.96 26.2009 22.96C26.9862 22.96 27.7335 22.732 28.4429 22.276C29.1775 21.82 29.5449 21.0473 29.5449 19.958ZM42.2363 17.45L42.2743 18.856V21.744C42.2743 24.4547 42.2236 25.8607 42.1223 25.962C41.7929 26.2913 41.2229 26.5447 40.4123 26.722C39.6016 26.8993 38.9303 26.988 38.3983 26.988C37.8916 26.988 37.6383 26.95 37.6383 26.874C37.8156 25.734 37.9043 23.8593 37.9043 21.25L37.7903 12.7C37.7903 11.1293 37.8536 10.2807 37.9803 10.154C38.2589 9.87533 38.7403 9.63467 39.4243 9.432C40.1083 9.204 40.7416 9.09 41.3243 9.09C41.9323 9.09 42.2363 9.15333 42.2363 9.28C42.1603 9.888 42.1223 10.496 42.1223 11.104C42.1223 11.712 42.1603 12.016 42.2363 12.016L42.3503 11.94C42.4769 11.7627 42.6669 11.5473 42.9203 11.294C43.1736 11.0153 43.7056 10.6607 44.5163 10.23C45.3523 9.774 46.1376 9.546 46.8723 9.546C47.6323 9.546 48.2656 9.68533 48.7723 9.964C49.3043 10.2173 49.7349 10.534 50.0643 10.914C50.3936 11.294 50.6723 11.8387 50.9003 12.548C51.1536 13.2573 51.3436 13.916 51.4703 14.524C51.5969 15.132 51.6983 15.9427 51.7743 16.956C51.8503 18.3493 51.8883 20.1227 51.8883 22.276L51.7743 26.722C51.7743 26.8993 51.3563 27.064 50.5203 27.216C49.6843 27.3933 49.0129 27.482 48.5063 27.482L47.2523 27.292C47.5056 25.012 47.6323 22.808 47.6323 20.68C47.6323 18.5267 47.4929 16.918 47.2143 15.854C46.9356 14.7647 46.3783 14.22 45.5423 14.22C44.7063 14.22 44.0223 14.448 43.4903 14.904C42.9836 15.36 42.6543 15.816 42.5023 16.272L42.2363 16.918V17.45ZM60.9263 13.118C63.9157 12.8393 66.107 12.1427 67.5003 11.028C68.919 9.888 69.6283 8.77333 69.6283 7.684C69.6283 6.56933 69.0837 5.75867 67.9943 5.252C66.905 4.72 65.5243 4.454 63.8523 4.454C62.9657 4.454 62.0663 4.53 61.1543 4.682C61.0023 5.77133 60.9263 8.58333 60.9263 13.118ZM61.3443 26.228C61.0657 26.5067 60.5083 26.722 59.6723 26.874C58.8363 27.0513 58.1397 27.14 57.5823 27.14C57.025 27.14 56.5437 27.064 56.1383 26.912L56.3663 4.986C56.037 4.58067 55.7077 3.90933 55.3783 2.972C55.0743 2.03467 54.9223 1.46467 54.9223 1.262C54.9223 1.034 54.9477 0.894665 54.9983 0.843998C55.049 0.767999 55.847 0.691999 57.3923 0.615998C58.963 0.514665 60.5463 0.463998 62.1423 0.463998C63.7383 0.463998 65.157 0.552665 66.3983 0.729999C67.6397 0.907332 68.9317 1.224 70.2743 1.68C71.617 2.11067 72.681 2.80733 73.4663 3.77C74.2517 4.73266 74.6443 5.974 74.6443 7.494C74.6443 8.98867 74.1123 10.382 73.0483 11.674C71.9843 12.966 70.5403 14.0553 68.7163 14.942C68.7163 15.3473 69.5143 17.1713 71.1103 20.414C72.7063 23.6313 73.973 25.7087 74.9103 26.646C74.9357 26.6713 74.9483 26.7093 74.9483 26.76C74.9483 26.836 74.7457 26.9627 74.3403 27.14C73.2257 27.672 72.0223 27.938 70.7303 27.938L69.7803 27.862C69.223 27.3047 68.2477 25.4553 66.8543 22.314C65.4863 19.1727 64.7263 17.2473 64.5743 16.538C64.2703 16.7153 63.067 16.9813 60.9643 17.336C61.015 22.428 61.1417 25.392 61.3443 26.228ZM90.4289 17.526C90.4289 20.6927 90.4669 22.542 90.5429 23.074C90.7456 24.4673 91.1762 25.468 91.8349 26.076C91.8349 26.3547 91.3282 26.7727 90.3149 27.33C89.3269 27.8873 88.4276 28.166 87.6169 28.166C87.3889 28.166 87.1482 27.824 86.8949 27.14C86.6416 26.4813 86.4896 25.9873 86.4389 25.658C86.4136 25.3287 86.3882 25.164 86.3629 25.164L86.2489 25.24C84.9062 26.304 83.3356 26.836 81.5369 26.836C79.7382 26.836 78.3449 26.4053 77.3569 25.544C76.3942 24.6573 75.9129 23.5047 75.9129 22.086C75.9129 20.6673 76.2169 19.4767 76.8249 18.514C77.4582 17.526 78.1929 16.7787 79.0289 16.272C79.8649 15.7653 80.7896 15.36 81.8029 15.056C83.3482 14.5493 84.5642 14.296 85.4509 14.296L85.5269 14.258C85.5269 13.0167 83.9562 12.396 80.8149 12.396C79.5736 12.396 78.6489 12.4467 78.0409 12.548H78.0029C78.0029 12.0413 78.1549 11.408 78.4589 10.648C78.7882 9.888 79.0542 9.394 79.2569 9.166C79.4849 8.938 80.3969 8.824 81.9929 8.824C84.8809 8.824 87.0089 9.38133 88.3769 10.496C89.7449 11.5853 90.4289 13.2827 90.4289 15.588V17.526ZM86.2109 19.958V18.514C86.2109 17.9567 86.1982 17.678 86.1729 17.678C84.4756 17.678 83.0062 18.1213 81.7649 19.008C80.9796 19.5653 80.5869 20.262 80.5869 21.098C80.5869 21.63 80.7769 22.0733 81.1569 22.428C81.5369 22.7827 82.1069 22.96 82.8669 22.96C83.6522 22.96 84.3996 22.732 85.1089 22.276C85.8436 21.82 86.2109 21.0473 86.2109 19.958ZM107.946 15.398L107.984 25.506C107.984 27.482 107.718 29.2427 107.186 30.788C106.68 32.3333 106.046 33.524 105.286 34.36C104.552 35.196 103.703 35.88 102.74 36.412C101.17 37.2987 99.5736 37.742 97.9523 37.742C97.8763 37.742 97.7243 37.552 97.4963 37.172C97.2683 36.792 97.053 36.2727 96.8503 35.614C96.6476 34.9807 96.5463 34.3853 96.5463 33.828C97.509 33.828 98.4716 33.638 99.4343 33.258C100.397 32.9033 101.068 32.5107 101.448 32.08C101.828 31.6747 102.208 31.1553 102.588 30.522C103.374 29.2807 103.766 27.2667 103.766 24.48L103.728 23.378C103.728 23.226 103.703 23.15 103.652 23.15C103.602 23.15 103.551 23.188 103.5 23.264C103.45 23.34 103.386 23.4413 103.31 23.568C103.234 23.6693 103.044 23.872 102.74 24.176C102.462 24.4547 102.158 24.708 101.828 24.936C100.942 25.544 100.042 25.848 99.1303 25.848C98.2436 25.848 97.5343 25.734 97.0023 25.506C96.4956 25.278 96.065 24.9867 95.7103 24.632C95.381 24.2773 95.1023 23.7833 94.8743 23.15C94.6463 22.4913 94.469 21.8833 94.3423 21.326C94.2156 20.7687 94.127 20.0087 94.0763 19.046C93.975 17.7033 93.9243 16.31 93.9243 14.866C93.9243 12.8647 94.0256 11.2307 94.2283 9.964L94.3423 9.432C94.3423 9.25467 94.7223 9.07733 95.4823 8.9C96.2676 8.72267 96.9136 8.634 97.4203 8.634L98.6363 8.824C98.3576 11.332 98.2183 13.4473 98.2183 15.17C98.2183 16.8927 98.3956 18.324 98.7503 19.464C99.105 20.604 99.7003 21.174 100.536 21.174C101.372 21.174 102.031 20.9333 102.512 20.452C103.019 19.9453 103.336 19.4513 103.462 18.97L103.652 18.248C103.602 16.652 103.576 14.942 103.576 13.118C103.576 11.2687 103.64 10.2807 103.766 10.154C104.096 9.82467 104.666 9.57133 105.476 9.394C106.312 9.21667 106.984 9.128 107.49 9.128C107.997 9.128 108.25 9.166 108.25 9.242C108.048 10.4327 107.946 12.4847 107.946 15.398ZM122.349 21.63C122.349 22.998 121.703 24.2267 120.411 25.316C119.145 26.38 117.764 27.14 116.269 27.596C114.8 28.0773 113.508 28.318 112.393 28.318C112.267 28.318 112.089 28.166 111.861 27.862C111.228 27.026 110.911 26.0507 110.911 24.936V24.67C112.887 24.67 114.395 24.328 115.433 23.644C116.472 22.96 116.991 22.2507 116.991 21.516C116.991 21.0347 116.675 20.528 116.041 19.996C115.408 19.464 114.711 18.9953 113.951 18.59C113.191 18.1847 112.495 17.6527 111.861 16.994C111.228 16.31 110.911 15.6007 110.911 14.866C110.911 13.3207 111.874 11.902 113.799 10.61C115.725 9.318 117.777 8.672 119.955 8.672C120.209 8.672 120.538 9.02667 120.943 9.736C121.349 10.42 121.564 11.1293 121.589 11.864C121.083 11.864 120.323 12.016 119.309 12.32C117.308 12.9533 116.307 13.7387 116.307 14.676C116.307 15.3347 117.295 16.234 119.271 17.374C120.031 17.8047 120.728 18.4 121.361 19.16C121.995 19.92 122.324 20.7433 122.349 21.63ZM129.852 16.842C127.306 16.842 125.254 14.828 125.254 12.244C125.254 9.736 127.344 7.646 129.852 7.646C132.36 7.646 134.45 9.736 134.45 12.244C134.45 14.904 132.284 16.842 129.852 16.842ZM129.852 15.436C131.79 15.436 133.044 13.916 133.044 12.244C133.044 10.534 131.562 9.052 129.852 9.052C128.104 9.052 126.66 10.534 126.66 12.244C126.66 14.03 128.028 15.436 129.852 15.436Z" fill="#4A55A2"/>
</svg>
